<?xml version='1.0' ?>
<!--Created by webtronics 0.1-->
<svg xmlns="http://www.w3.org/2000/svg" style="background-color: rgb(255, 255, 255);" width="881" height="420.90234375"><g connects="0,20;40,20" stroke="black" stroke-width="2px" id="G:61efe123c2fc00" transform="matrix(1, 0, 0, 1, 720, 160)" partvalue="">
    <path d="M 31.864774,20.071429 L 8.753888,40.357143 L 8.753888,0.5 L 31.982663,20.418568 L 39.882814,20.418568" id="path1887" fill="none"/>
    <path d="M 8.753888,20.357143 L 0.5,20.357143" id="path1970"/>
    <path d="M 34.155292,19.998991 C 34.155596,21.853484 33.337242,23.357143 32.327646,23.357143 C 31.31805,23.357143 30.499696,21.853484 30.5,19.998991 C 30.499696,18.144498 31.31805,16.640839 32.327646,16.640839 C 33.337242,16.640839 34.155596,18.144498 34.155292,19.998991 z" id="path1972" fill="none"/>
  </g><g stroke="black" stroke-width="2px" id="G:02777f2a192201" connects="0,10;60,20;0,30" transform="matrix(1, 0, 0, 1, 670, 160)" partvalue="">
    <path d="M 10.863637,0.66290618 L 20.136364,0.57199708 C 20.136364,0.57199708 33.500001,-0.35982112 41.045455,4.4810879 C 48.59091,9.3219965 49.272727,14.70836 49.409091,19.935633 C 49.545455,25.162906 48.590909,31.003815 41.045455,35.935633 C 33.500001,40.867451 20.136364,40.390178 20.136364,40.390178 L 10.863637,40.117451 L 10.863637,0.66290618 z" id="path2189" fill="none"/>
    <path d="M 49.818182,19.935633 L 59.818182,19.935633" id="path2191"/>
    <path d="M 10.5,10.435633 L 0.5,10.435633" id="path2193"/>
    <path d="M 10.818182,30.299269 L 0.818182,30.299269" id="path2195"/>
  </g><text x="440" y="180" font-size="12" stroke="black">NAND gate is AND followed by NOT</text><text x="260" y="350" font-size="12" stroke="black">XOR constructed with four NAND gates</text><g connects="60,20;0,10;0,30" stroke="black" stroke-width="2px" id="G:7b3388ab2e7365" transform="matrix(1, 0, 0, 1, 660, 370)" partvalue="">
    <path d="M 10.863637,0.66290618 L 20.136364,0.57199708 C 20.136364,0.57199708 33.500001,-0.35982112 41.045455,4.4810879 C 48.59091,9.3219965 49.272727,14.70836 49.409091,19.935633 C 49.545455,25.162906 48.590909,31.003815 41.045455,35.935633 C 33.500001,40.867451 20.136364,40.390178 20.136364,40.390178 L 10.863637,40.117451 L 10.863637,0.66290618 z" id="path2189" fill="none"/>
    <path d="M 49.818182,19.935633 L 59.818182,19.935633" id="path2191"/>
    <path d="M 10.5,10.435633 L 0.5,10.435633" id="path2193"/>
    <path d="M 10.818182,30.299269 L 0.818182,30.299269" id="path2195"/>
    <path d="M 53.464991,19.999123 C 53.464991,21.220202 52.520106,22.210081 51.35453,22.210081 C 50.188955,22.210081 49.24407,21.220202 49.24407,19.999123 C 49.24407,18.778044 50.188955,17.788165 51.35453,17.788165 C 52.520106,17.788165 53.464991,18.778044 53.464991,19.999123 z" id="path2162"/>
  </g><g connects="60,20;0,10;0,30" stroke="black" stroke-width="2px" id="G:1d35ee2dcb445d" transform="matrix(1, 0, 0, 1, 770, 330)" partvalue="">
    <path d="M 10.863637,0.66290618 L 20.136364,0.57199708 C 20.136364,0.57199708 33.500001,-0.35982112 41.045455,4.4810879 C 48.59091,9.3219965 49.272727,14.70836 49.409091,19.935633 C 49.545455,25.162906 48.590909,31.003815 41.045455,35.935633 C 33.500001,40.867451 20.136364,40.390178 20.136364,40.390178 L 10.863637,40.117451 L 10.863637,0.66290618 z" id="path2189" fill="none"/>
    <path d="M 49.818182,19.935633 L 59.818182,19.935633" id="path2191"/>
    <path d="M 10.5,10.435633 L 0.5,10.435633" id="path2193"/>
    <path d="M 10.818182,30.299269 L 0.818182,30.299269" id="path2195"/>
    <path d="M 53.464991,19.999123 C 53.464991,21.220202 52.520106,22.210081 51.35453,22.210081 C 50.188955,22.210081 49.24407,21.220202 49.24407,19.999123 C 49.24407,18.778044 50.188955,17.788165 51.35453,17.788165 C 52.520106,17.788165 53.464991,18.778044 53.464991,19.999123 z" id="path2162"/>
  </g><g connects="60,20;0,10;0,30" stroke="black" stroke-width="2px" id="G:73938acb71da95" transform="matrix(1, 0, 0, 1, 660, 290)" partvalue="">
    <path d="M 10.863637,0.66290618 L 20.136364,0.57199708 C 20.136364,0.57199708 33.500001,-0.35982112 41.045455,4.4810879 C 48.59091,9.3219965 49.272727,14.70836 49.409091,19.935633 C 49.545455,25.162906 48.590909,31.003815 41.045455,35.935633 C 33.500001,40.867451 20.136364,40.390178 20.136364,40.390178 L 10.863637,40.117451 L 10.863637,0.66290618 z" id="path2189" fill="none"/>
    <path d="M 49.818182,19.935633 L 59.818182,19.935633" id="path2191"/>
    <path d="M 10.5,10.435633 L 0.5,10.435633" id="path2193"/>
    <path d="M 10.818182,30.299269 L 0.818182,30.299269" id="path2195"/>
    <path d="M 53.464991,19.999123 C 53.464991,21.220202 52.520106,22.210081 51.35453,22.210081 C 50.188955,22.210081 49.24407,21.220202 49.24407,19.999123 C 49.24407,18.778044 50.188955,17.788165 51.35453,17.788165 C 52.520106,17.788165 53.464991,18.778044 53.464991,19.999123 z" id="path2162"/>
  </g><g connects="60,20;0,10;0,30" stroke="black" stroke-width="2px" id="G:c8c2f506d738fa" transform="matrix(1, 0, 0, 1, 540, 330)" partvalue="">
    <path d="M 10.863637,0.66290618 L 20.136364,0.57199708 C 20.136364,0.57199708 33.500001,-0.35982112 41.045455,4.4810879 C 48.59091,9.3219965 49.272727,14.70836 49.409091,19.935633 C 49.545455,25.162906 48.590909,31.003815 41.045455,35.935633 C 33.500001,40.867451 20.136364,40.390178 20.136364,40.390178 L 10.863637,40.117451 L 10.863637,0.66290618 z" id="path2189" fill="none"/>
    <path d="M 49.818182,19.935633 L 59.818182,19.935633" id="path2191"/>
    <path d="M 10.5,10.435633 L 0.5,10.435633" id="path2193"/>
    <path d="M 10.818182,30.299269 L 0.818182,30.299269" id="path2195"/>
    <path d="M 53.464991,19.999123 C 53.464991,21.220202 52.520106,22.210081 51.35453,22.210081 C 50.188955,22.210081 49.24407,21.220202 49.24407,19.999123 C 49.24407,18.778044 50.188955,17.788165 51.35453,17.788165 C 52.520106,17.788165 53.464991,18.778044 53.464991,19.999123 z" id="path2162"/>
  </g><line x1="600" y1="320" x2="600" y2="350" style="position: absolute;" stroke="black" stroke-width="2"/><line x1="600" y1="320" x2="660" y2="320" style="position: absolute;" stroke="black" stroke-width="2"/><line x1="600" y1="350" x2="600" y2="380" style="position: absolute;" stroke="black" stroke-width="2"/><line x1="600" y1="380" x2="660" y2="380" style="position: absolute;" stroke="black" stroke-width="2"/><line x1="720" y1="310" x2="740" y2="310" style="position: absolute;" stroke="black" stroke-width="2"/><line x1="740" y1="310" x2="740" y2="340" style="position: absolute;" stroke="black" stroke-width="2"/><line x1="740" y1="340" x2="770" y2="340" style="position: absolute;" stroke="black" stroke-width="2"/><line x1="720" y1="390" x2="740" y2="390" style="position: absolute;" stroke="black" stroke-width="2"/><line x1="740" y1="360" x2="740" y2="390" style="position: absolute;" stroke="black" stroke-width="2"/><line x1="740" y1="360" x2="770" y2="360" style="position: absolute;" stroke="black" stroke-width="2"/><line x1="830" y1="350" x2="870" y2="350" style="position: absolute;" stroke="black" stroke-width="2"/><line x1="490" y1="300" x2="660" y2="300" style="position: absolute;" stroke="black" stroke-width="2"/><line x1="490" y1="340" x2="540" y2="340" style="position: absolute;" stroke="black" stroke-width="2"/><line x1="490" y1="360" x2="540" y2="360" style="position: absolute;" stroke="black" stroke-width="2"/><line x1="490" y1="400" x2="660" y2="400" style="position: absolute;" stroke="black" stroke-width="2"/><line x1="420" y1="320" x2="490" y2="320" style="position: absolute;" stroke="black" stroke-width="2"/><line x1="490" y1="300" x2="490" y2="320" style="position: absolute;" stroke="black" stroke-width="2"/><line x1="490" y1="320" x2="490" y2="340" style="position: absolute;" stroke="black" stroke-width="2"/><circle cx="490" cy="320" r="3" style="position: absolute;" stroke="black" fill="black"/><line x1="420" y1="380" x2="490" y2="380" style="position: absolute;" stroke="black" stroke-width="2"/><line x1="490" y1="380" x2="490" y2="400" style="position: absolute;" stroke="black" stroke-width="2"/><line x1="490" y1="360" x2="490" y2="380" style="position: absolute;" stroke="black" stroke-width="2"/><circle cx="490" cy="380" r="3" style="position: absolute;" stroke="black" fill="black"/><g connects="0,10;0,30;60,20" stroke="black" stroke-width="2px" id="G:c7591b47644147" transform="matrix(1, 0, 0, 1, 180, 330)" partvalue="">
    <path d="m 10.863637,0.66290618 9.272727,-0.0909091 c 1.054535,0.0492046 13.887589,1.54738812 20.909091,8.46350252 5.021048,4.9456854 7.84074,9.5075004 8.373838,11.0957734 0.910212,2.711815 -0.233035,-1.390855 -0.0102,0.02653 0.269718,1.7156 -2.93611,8.017301 -9.474468,14.222668 -7.264999,6.895002 -19.796886,6.019318 -19.798259,6.00971 l -9.272727,-0.272727 c 4.003203,-12.651115 5.429849,-25.624299 0,-39.45454482 z" id="path2189" fill="none"/>
    <path d="m 49.818182,19.935633 c 7.395532,0.238953 7.086384,0.02469 10,0" id="path2191" fill="none"/>
    <path d="M 13.388164,10.102383 0.5,10.435633" id="path2193"/>
    <path d="m 12.928763,30.299269 -12.110581,0" id="path2195"/>
    <path d="M 8.5534073,0.24627359 C 12.833902,15.790562 11.722718,28.63901 8.3312409,40.347313" id="path3223" fill="none"/>
  </g><g connects="60,20;0,10;0,30" stroke="black" stroke-width="2px" id="G:622812b4ec33e0" transform="matrix(1, 0, 0, 1, 360, 160)" partvalue="">
    <path d="M 10.863637,0.66290618 L 20.136364,0.57199708 C 20.136364,0.57199708 33.500001,-0.35982112 41.045455,4.4810879 C 48.59091,9.3219965 49.272727,14.70836 49.409091,19.935633 C 49.545455,25.162906 48.590909,31.003815 41.045455,35.935633 C 33.500001,40.867451 20.136364,40.390178 20.136364,40.390178 L 10.863637,40.117451 L 10.863637,0.66290618 z" id="path2189" fill="none"/>
    <path d="M 49.818182,19.935633 L 59.818182,19.935633" id="path2191"/>
    <path d="M 10.5,10.435633 L 0.5,10.435633" id="path2193"/>
    <path d="M 10.818182,30.299269 L 0.818182,30.299269" id="path2195"/>
    <path d="M 53.464991,19.999123 C 53.464991,21.220202 52.520106,22.210081 51.35453,22.210081 C 50.188955,22.210081 49.24407,21.220202 49.24407,19.999123 C 49.24407,18.778044 50.188955,17.788165 51.35453,17.788165 C 52.520106,17.788165 53.464991,18.778044 53.464991,19.999123 z" id="path2162"/>
  </g></svg>